<svg width="32" height="32" viewBox="0 0 32 32" fill="none" xmlns="http://www.w3.org/2000/svg">
<mask id="mask0_117_23" style="mask-type:alpha" maskUnits="userSpaceOnUse" x="2" y="2" width="28" height="28">
<circle cx="16" cy="16" r="13.5" fill="#CC7647" stroke="black"/>
</mask>
<g mask="url(#mask0_117_23)">
<circle cx="16" cy="16" r="13.5" fill="#CC7647" stroke="black"/>
<path d="M2.47316 12.6958C2.47316 12.6958 4.57831 11.375 6.10188 11.1059C11.1446 10.2152 13.7539 11.2346 18.4764 11.5392C20.0506 11.6407 22.9515 11.4153 23.898 10.4298C24.8446 9.44419 25.5151 7.9806 25.2377 6.62519C24.9604 5.26978 23.9252 4.35187 23.9252 4.35187" stroke="black" stroke-linecap="round"/>
<path d="M4.0943 23.379C4.0943 23.379 7.20903 23.5238 16.3945 19.3085C20.2766 17.527 22.2965 16.4062 25.8666 13.8398C27.315 12.7986 28.9993 10.5156 28.9993 10.5156" stroke="black" stroke-linecap="round"/>
<path d="M14.4886 30.0073C18.7149 28.5776 22.0077 24.6558 23.2459 22.4254C23.9888 21.0872 25.7222 17.9646 27.2378 17.0896C28.1736 16.5493 29.1322 15.9958 29.9486 16.5349M9.75769 3.43817C15.3395 1.73108 22.1189 6.70376 25.4292 13.082C27.5484 17.1652 28.6089 20.3394 27.1091 24.7416" stroke="black" stroke-linecap="round"/>
<circle cx="16" cy="16" r="13.5" fill="url(#paint0_radial_117_23)" stroke="black"/>
</g>
<defs>
<radialGradient id="paint0_radial_117_23" cx="0" cy="0" r="1" gradientUnits="userSpaceOnUse" gradientTransform="translate(20.5 10.5) rotate(112.109) scale(17.2699)">
<stop stop-color="white" stop-opacity="0.4"/>
<stop offset="0.713542" stop-color="white" stop-opacity="0"/>
</radialGradient>
</defs>
</svg>
